<?xml version="1.0" encoding="UTF-8"?>
<!DOCTYPE svg PUBLIC "-//W3C//DTD SVG 1.1//EN" "http://www.w3.org/Graphics/SVG/1.1/DTD/svg11.dtd">
<!-- Creator: CorelDRAW X7 -->
<svg xmlns="http://www.w3.org/2000/svg" xml:space="preserve" width="5.33333in" height="5.33319in" version="1.1" style="shape-rendering:geometricPrecision; text-rendering:geometricPrecision; image-rendering:optimizeQuality; fill-rule:evenodd; clip-rule:evenodd"
viewBox="0 0 5333 5333"
 xmlns:xlink="http://www.w3.org/1999/xlink">
 <defs>
  <style type="text/css">
   <![CDATA[
    .fil0 {fill:#00ABE9}
   ]]>
  </style>
 </defs>
 <g id="Layer_x0020_1">
  <metadata id="CorelCorpID_0Corel-Layer"/>
  <g id="_327660288">
   <polygon class="fil0" points="1613,2187 2107,2187 2107,4396 1613,4396 "/>
   <polygon class="fil0" points="2420,2187 2914,2187 2914,4396 2420,4396 "/>
   <polygon class="fil0" points="3226,2187 3720,2187 3720,4396 3226,4396 "/>
   <polygon class="fil0" points="807,2187 1301,2187 1301,4396 807,4396 "/>
   <polygon class="fil0" points="4033,2187 4527,2187 4527,4396 4033,4396 "/>
   <polygon class="fil0" points="0,1562 5333,1562 5333,1875 0,1875 "/>
   <polygon class="fil0" points="5213,1250 2667,0 120,1250 "/>
   <polygon class="fil0" points="4839,2187 5333,2187 5333,4396 4839,4396 "/>
   <polygon class="fil0" points="0,4708 5333,4708 5333,5333 0,5333 "/>
   <polygon class="fil0" points="0,2187 494,2187 494,4396 0,4396 "/>
  </g>
 </g>
</svg>
