<?xml version="1.0" encoding="UTF-8"?>
<!DOCTYPE svg PUBLIC "-//W3C//DTD SVG 1.1//EN" "http://www.w3.org/Graphics/SVG/1.1/DTD/svg11.dtd">
<!-- Creator: CorelDRAW X7 -->
<svg xmlns="http://www.w3.org/2000/svg" xml:space="preserve" width="4.22244in" height="5.27455in" version="1.1" style="shape-rendering:geometricPrecision; text-rendering:geometricPrecision; image-rendering:optimizeQuality; fill-rule:evenodd; clip-rule:evenodd"
viewBox="0 0 4908 6131"
 xmlns:xlink="http://www.w3.org/1999/xlink">
 <defs>
  <style type="text/css">
   <![CDATA[
    .fil0 {fill:#00ABE9}
   ]]>
  </style>
 </defs>
 <g id="Layer_x0020_1">
  <metadata id="CorelCorpID_0Corel-Layer"/>
  <g id="_324877304">
   <g>
    <path class="fil0" d="M840 2420l3228 0c74,0 134,-60 134,-134 0,-74 -60,-134 -134,-134l-7 0c-61,-738 -619,-1335 -1338,-1455l0 -193 -235 0 0 -470c0,-19 -15,-34 -34,-34 -19,0 -34,15 -34,34l0 470 -235 0 0 192c-719,121 -1277,717 -1338,1455l-7 0c-74,0 -134,61 -134,135 0,74 60,134 134,134z"/>
    <path class="fil0" d="M4740 5795l-168 0 0 -1547 168 0c93,0 168,-74 168,-168 0,-92 -75,-168 -168,-168l-4572 0c-93,0 -168,76 -168,168 0,94 75,168 168,168l168 0 0 1547 -168 0c-93,0 -168,75 -168,168 0,93 75,168 168,168l4572 0c93,0 168,-75 168,-168 0,-92 -75,-168 -168,-168zm-639 0l-282 0 0 -1547 282 0 0 1547zm-1788 -1547l282 0 0 1547 -282 0 0 -1547zm-471 1547l-282 0 0 -1547 282 0 0 1547zm1224 -1547l282 0 0 1547 -282 0 0 -1547zm-2259 0l282 0 0 1547 -282 0 0 -1547z"/>
    <path class="fil0" d="M639 2992l169 0c0,2 -1,5 -1,7l0 725 336 0 0 -725c0,-3 -1,-5 -1,-7l159 0c0,2 -1,5 -1,7l0 725 336 0 0 -725c0,-3 -1,-5 -1,-7l160 0c0,2 -2,5 -2,7l0 725 337 0 0 -725c0,-3 -2,-5 -2,-7l160 0c0,2 -2,5 -2,7l0 725 337 0 0 -725c0,-3 -2,-5 -2,-7l160 0c0,2 -1,5 -1,7l0 725 336 0 0 -725c0,-3 -1,-5 -1,-7l159 0c0,2 -1,5 -1,7l0 725 336 0 0 -725c0,-3 -1,-5 -1,-7l159 0c0,2 -1,5 -1,7l0 725 336 0 0 -725c0,-3 -1,-5 -1,-7l169 0c93,0 168,-75 168,-168 0,-93 -75,-168 -168,-168l-3630 0c-93,0 -168,75 -168,168 0,92 74,168 167,168z"/>
   </g>
  </g>
 </g>
</svg>
