<?xml version="1.0" encoding="UTF-8"?>
<!DOCTYPE svg PUBLIC "-//W3C//DTD SVG 1.1//EN" "http://www.w3.org/Graphics/SVG/1.1/DTD/svg11.dtd">
<!-- Creator: CorelDRAW X7 -->
<svg xmlns="http://www.w3.org/2000/svg" xml:space="preserve" width="4.22244in" height="5.27455in" version="1.1" style="shape-rendering:geometricPrecision; text-rendering:geometricPrecision; image-rendering:optimizeQuality; fill-rule:evenodd; clip-rule:evenodd"
viewBox="0 0 3849 4808"
 xmlns:xlink="http://www.w3.org/1999/xlink">
 <defs>
  <style type="text/css">
   <![CDATA[
    .fil0 {fill:#606060}
   ]]>
  </style>
 </defs>
 <g id="Layer_x0020_1">
  <metadata id="CorelCorpID_0Corel-Layer"/>
  <g id="_324870056">
   <g>
    <path class="fil0" d="M659 1898l2531 0c58,0 105,-47 105,-106 0,-58 -47,-105 -105,-105l-6 0c-48,-579 -485,-1046 -1049,-1141l0 -151 -184 0 0 -369c0,-14 -12,-26 -27,-26 -14,0 -26,12 -26,26l0 369 -185 0 0 151c-564,95 -1001,562 -1049,1141l-5 0c-58,0 -105,47 -105,105 0,59 47,106 105,106z"/>
    <path class="fil0" d="M3717 4544l-132 0 0 -1213 132 0c73,0 132,-58 132,-131 0,-73 -59,-132 -132,-132l-3585 0c-73,0 -132,59 -132,132 0,73 59,131 132,131l132 0 0 1213 -132 0c-73,0 -132,59 -132,132 0,73 59,132 132,132l3585 0c73,0 132,-59 132,-132 0,-73 -59,-132 -132,-132zm-501 0l-221 0 0 -1213 221 0 0 1213zm-1402 -1213l221 0 0 1213 -221 0 0 -1213zm-369 1213l-222 0 0 -1213 222 0 0 1213zm959 -1213l221 0 0 1213 -221 0 0 -1213zm-1771 0l221 0 0 1213 -221 0 0 -1213z"/>
    <path class="fil0" d="M501 2346l133 0c0,2 -1,4 -1,5l0 569 263 0 0 -569c0,-2 -1,-4 -1,-5l125 0c0,2 -1,4 -1,5l0 569 264 0 0 -569c0,-2 -1,-4 -1,-5l125 0c0,2 -1,4 -1,5l0 569 264 0 0 -569c0,-2 -1,-4 -1,-5l125 0c0,2 -1,4 -1,5l0 569 264 0 0 -569c0,-2 -2,-4 -2,-5l126 0c0,2 -1,4 -1,5l0 569 263 0 0 -569c0,-2 -1,-4 -1,-5l125 0c0,2 -1,4 -1,5l0 569 264 0 0 -569c0,-2 -1,-4 -1,-5l125 0c0,2 -1,4 -1,5l0 569 264 0 0 -569c0,-2 -1,-4 -1,-5l132 0c73,0 132,-59 132,-132 0,-73 -59,-132 -132,-132l-2846 0c-73,0 -132,59 -132,132 0,73 58,132 131,132z"/>
   </g>
  </g>
 </g>
</svg>
