<?xml version="1.0" encoding="UTF-8"?>
<!DOCTYPE svg PUBLIC "-//W3C//DTD SVG 1.1//EN" "http://www.w3.org/Graphics/SVG/1.1/DTD/svg11.dtd">
<!-- Creator: CorelDRAW X7 -->
<svg xmlns="http://www.w3.org/2000/svg" xml:space="preserve" width="5.33333in" height="5.33333in" version="1.1" style="shape-rendering:geometricPrecision; text-rendering:geometricPrecision; image-rendering:optimizeQuality; fill-rule:evenodd; clip-rule:evenodd"
viewBox="0 0 5333 5333"
 xmlns:xlink="http://www.w3.org/1999/xlink">
 <defs>
  <style type="text/css">
   <![CDATA[
    .fil0 {fill:#606060}
   ]]>
  </style>
 </defs>
 <g id="Layer_x0020_1">
  <metadata id="CorelCorpID_0Corel-Layer"/>
  <g id="_325231096">
   <path class="fil0" d="M5229 3042l-729 0 0 -375c0,-48 -33,-90 -80,-102l-414 -99c-92,-620 -603,-1101 -1235,-1149l0 -275 1146 0c42,0 80,-26 96,-65 16,-39 7,-83 -23,-113l-343 -343 343 -343c30,-30 39,-75 23,-114 -16,-39 -54,-64 -96,-64l-1250 0c-58,0 -104,47 -104,104l0 1213c-633,48 -1143,529 -1236,1149l-414 99c-47,12 -80,54 -80,102l0 375 -729 0c-57,0 -104,46 -104,104l0 2083c0,58 47,104 104,104l2094 0c57,0 104,-46 104,-104 0,-57 -47,-104 -104,-104 -204,0 -1023,0 -1156,0l0 -208 3250 0 0 208 -1157 0c-57,0 -104,47 -104,104 0,58 47,104 104,104l2094 0c58,0 104,-46 104,-104l0 -2083c0,-58 -46,-104 -104,-104zm-2458 -2834l894 0 -239 239c-40,41 -40,107 0,148l239 238 -894 0 0 -625zm-104 1313c545,0 1002,374 1117,891l-1093 -263c-16,-4 -33,-4 -49,0l-1093 263c116,-517 573,-891 1118,-891l0 0zm-1625 1228c216,-52 1483,-358 1625,-392l1625 392 0 293 -3250 0 0 -293zm625 501l0 1458 -209 0 0 -1458 209 0zm208 0l479 0 0 1458 -479 0 0 -1458zm688 0l208 0 0 1458 -208 0 0 -1458zm416 0l479 0 0 1458 -479 0 0 -1458zm688 0l208 0 0 1458 -208 0 0 -1458zm-3459 1875l0 -1875 1042 0 0 1458 -208 0 0 -312c0,-58 -47,-104 -104,-104l-417 0c-58,0 -104,46 -104,104l0 417c0,57 46,104 104,104l312 0 0 208 -625 0zm625 -417l-208 0 0 -208 208 0 0 208zm4292 417l-625 0 0 -208 313 0c57,0 104,-47 104,-104l0 -417c0,-58 -47,-104 -104,-104l-417 0c-58,0 -104,46 -104,104l0 312 -209 0 0 -1458 1042 0 0 1875zm-625 -417l0 -208 208 0 0 208 -208 0z"/>
   <path class="fil0" d="M4292 3563l0 416c0,58 46,104 104,104l417 0c57,0 104,-46 104,-104l0 -416c0,-58 -47,-105 -104,-105l-417 0c-58,0 -104,47 -104,105l0 0zm208 104l208 0 0 208 -208 0 0 -208z"/>
   <path class="fil0" d="M521 4083l417 0c57,0 104,-46 104,-104l0 -416c0,-58 -47,-105 -104,-105l-417 0c-58,0 -104,47 -104,105l0 416c0,58 46,104 104,104l0 0zm104 -416l208 0 0 208 -208 0 0 -208z"/>
   <circle class="fil0" cx="2667" cy="5229" r="104"/>
  </g>
 </g>
</svg>
