<svg height='100px' width='100px'  fill="#606060" xmlns="http://www.w3.org/2000/svg" xmlns:xlink="http://www.w3.org/1999/xlink" version="1.2" baseProfile="tiny" x="0px" y="0px" viewBox="0 0 20 20" xml:space="preserve"><g><path d="M17.8,15.3h-1.4V7.7h1.4V5.9H2.3v1.8h1.1v7.6H2.3V17h-1v1.8h17.4V17h-0.9V15.3z M9,15.3V7.7h1.9v7.6H9z M14.6,15.3h-1.9   V7.7h1.9V15.3z M5.2,7.7h1.9v7.6H5.2V7.7z"></path><polygon points="18.7,3.6 18.7,3.6 18.7,3.6 18.7,3.6 10,1.4 1.3,3.6 1.3,3.6 1.3,3.6 1.3,3.6 1.3,3.6 1.3,5.4 18.7,5.4 18.7,3.6     "></polygon></g><text transform="matrix(1 0 0 1 0.3727 26.8895)" font-family="'MyriadPro-Regular'" font-size="2px">C</text><text transform="matrix(1 0 0 1 1.527 26.8895)" font-family="'MyriadPro-Regular'" font-size="2px">r</text><text transform="matrix(1 0 0 1 2.1608 26.8895)" font-family="'MyriadPro-Regular'" font-size="2px">e</text><text transform="matrix(1 0 0 1 3.1627 26.8895)" font-family="'MyriadPro-Regular'" font-size="2px">a</text><text transform="matrix(1 0 0 1 4.1188 26.8895)" font-family="'MyriadPro-Regular'" font-size="2px">t</text><text transform="matrix(1 0 0 1 4.7682 26.8895)" font-family="'MyriadPro-Regular'" font-size="2px">e</text><text transform="matrix(1 0 0 1 5.7711 26.8895)" font-family="'MyriadPro-Regular'" font-size="2px">d</text><text transform="matrix(1 0 0 1 6.8991 26.8895)" font-family="'MyriadPro-Regular'" font-size="2px"></text><text transform="matrix(1 0 0 1 7.3229 26.8895)" font-family="'MyriadPro-Regular'" font-size="2px">b</text><text transform="matrix(1 0 0 1 8.4469 26.8895)" font-family="'MyriadPro-Regular'" font-size="2px">y</text><text transform="matrix(1 0 0 1 9.3883 26.8895)" font-family="'MyriadPro-Regular'" font-size="2px"></text><text transform="matrix(1 0 0 1 9.8121 26.8895)" font-family="'MyriadPro-Regular'" font-size="2px">M</text><text transform="matrix(1 0 0 1 11.4323 26.8895)" font-family="'MyriadPro-Regular'" font-size="2px">e</text><text transform="matrix(1 0 0 1 12.4342 26.8895)" font-family="'MyriadPro-Regular'" font-size="2px">t</text><text transform="matrix(1 0 0 1 13.0963 26.8895)" font-family="'MyriadPro-Regular'" font-size="2px">a</text><text transform="matrix(1 0 0 1 14.0602 26.8895)" font-family="'MyriadPro-Regular'" font-size="2px"></text><text transform="matrix(1 0 0 1 14.403 26.8895)" font-family="'MyriadPro-Regular'" font-size="2px">T</text><text transform="matrix(1 0 0 1 15.2545 26.8895)" font-family="'MyriadPro-Regular'" font-size="2px">e</text><text transform="matrix(1 0 0 1 16.2565 26.8895)" font-family="'MyriadPro-Regular'" font-size="2px">a</text><text transform="matrix(1 0 0 1 17.2203 26.8895)" font-family="'MyriadPro-Regular'" font-size="2px">m</text><text transform="matrix(1 0 0 1 1.8326 29.2899)" font-family="'MyriadPro-Regular'" font-size="2px">h</text><text transform="matrix(1 0 0 1 2.9342 29.2899)" font-family="'MyriadPro-Regular'" font-size="2px">t</text><text transform="matrix(1 0 0 1 3.5963 29.2899)" font-family="'MyriadPro-Regular'" font-size="2px">t</text><text transform="matrix(1 0 0 1 4.2584 29.2899)" font-family="'MyriadPro-Regular'" font-size="2px">p</text><text transform="matrix(1 0 0 1 5.3961 29.2899)" font-family="'MyriadPro-Regular'" font-size="2px">:</text><text transform="matrix(1 0 0 1 5.8102 29.2899)" font-family="'MyriadPro-Regular'" font-size="2px">/</text><text transform="matrix(1 0 0 1 6.4967 29.2899)" font-family="'MyriadPro-Regular'" font-size="2px">/</text><text transform="matrix(1 0 0 1 7.1823 29.2899)" font-family="'MyriadPro-Regular'" font-size="2px">g</text><text transform="matrix(1 0 0 1 8.3004 29.2899)" font-family="'MyriadPro-Regular'" font-size="2px">e</text><text transform="matrix(1 0 0 1 9.3024 29.2899)" font-family="'MyriadPro-Regular'" font-size="2px">t</text><text transform="matrix(1 0 0 1 9.9645 29.2899)" font-family="'MyriadPro-Regular'" font-size="2px">m</text><text transform="matrix(1 0 0 1 11.6325 29.2899)" font-family="'MyriadPro-Regular'" font-size="2px">e</text><text transform="matrix(1 0 0 1 12.6344 29.2899)" font-family="'MyriadPro-Regular'" font-size="2px">t</text><text transform="matrix(1 0 0 1 13.2965 29.2899)" font-family="'MyriadPro-Regular'" font-size="2px">a</text><text transform="matrix(1 0 0 1 14.2604 29.2899)" font-family="'MyriadPro-Regular'" font-size="2px">.</text><text transform="matrix(1 0 0 1 14.6744 29.2899)" font-family="'MyriadPro-Regular'" font-size="2px">x</text><text transform="matrix(1 0 0 1 15.6305 29.2899)" font-family="'MyriadPro-Regular'" font-size="2px">y</text><text transform="matrix(1 0 0 1 16.5719 29.2899)" font-family="'MyriadPro-Regular'" font-size="2px">z</text></svg>