<svg width="1920" height="984" viewBox="0 0 1920 984" fill="none" xmlns="http://www.w3.org/2000/svg">
<g clip-path="url(#clip0)">
<rect width="1920" height="2891" transform="matrix(-1 0 0 1 1920 -1907)" fill="white"/>
<path d="M0 -36.3145H1920V424.209L1277 668.411L991 397.363L640 728.999L0 424.209L0 -36.3145Z" fill="#F4FEFF"/>
<path d="M1920 -36.3145L0 -36.3145V424.209L640 728.999L807.811 569.908L1038 728.999L1431 196.468L1920 424.209V-36.3145Z" fill="#F4FEFF"/>
<path fill-rule="evenodd" clip-rule="evenodd" d="M0 -2853H1920V-36.3142V-7.72559V424.209L1280 125.688L640 728.999L0 424.209V-7.72559V-36.3142V-2853Z" fill="#F4FEFF"/>
</g>
<defs>
<clipPath id="clip0">
<rect width="1920" height="2891" fill="white" transform="matrix(-1 0 0 1 1920 -1907)"/>
</clipPath>
</defs>
</svg>
